<svg width="817" height="190" viewBox="0 0 817 190" fill="none" xmlns="http://www.w3.org/2000/svg">
<path d="M517.841 143.712H511.252V98.6646H517.841V143.712ZM514.783 92.6784C513.721 92.6784 512.788 92.2621 511.984 91.4295C511.209 90.5682 510.821 89.6351 510.821 88.6302C510.821 87.5966 511.209 86.6635 511.984 85.8309C512.788 84.9695 513.721 84.5389 514.783 84.5389C515.874 84.5389 516.808 84.9695 517.583 85.8309C518.387 86.6635 518.789 87.5966 518.789 88.6302C518.789 89.6351 518.387 90.5682 517.583 91.4295C516.808 92.2621 515.874 92.6784 514.783 92.6784ZM566.119 143.712H559.529V120.542C559.529 116.092 558.252 112.36 555.696 109.345C553.141 106.33 550.055 104.823 546.437 104.823C542.82 104.823 539.733 106.33 537.178 109.345C534.651 112.36 533.388 116.092 533.388 120.542V143.669H526.756V97.6741H533.388V103.833C533.905 103.144 534.809 102.397 536.101 101.593C537.393 100.789 538.944 100.1 540.752 99.526C542.561 98.9518 544.456 98.6646 546.437 98.6646C550.055 98.6646 553.342 99.6695 556.299 101.679C559.285 103.66 561.668 106.316 563.448 109.647C565.229 112.948 566.119 116.58 566.119 120.542V143.712ZM596.911 143.712C592.949 143.712 589.403 142.765 586.274 140.87C583.173 138.975 580.718 136.463 578.909 133.333C577.1 130.175 576.196 126.715 576.196 122.954V114.944H572.579V108.785H576.196V82.6009H582.785V108.785H593.767V114.944H582.785V122.954C582.785 125.71 583.374 128.194 584.551 130.405C585.757 132.615 587.422 134.367 589.547 135.659C591.671 136.922 594.126 137.554 596.911 137.554V143.712ZM622.923 143.712C618.875 143.712 615.171 142.693 611.812 140.654C608.482 138.587 605.811 135.845 603.802 132.429C601.821 129.012 600.83 125.265 600.83 121.188C600.83 117.111 601.821 113.365 603.802 109.948C605.811 106.531 608.482 103.804 611.812 101.765C615.171 99.6982 618.875 98.6646 622.923 98.6646C626.569 98.6646 630.029 99.5547 633.302 101.335C636.575 103.115 639.245 105.57 641.312 108.699L642.992 111.326L610.219 130.577C611.482 132.644 613.219 134.324 615.43 135.616C617.64 136.908 620.138 137.554 622.923 137.554C625.565 137.554 628.019 136.879 630.287 135.529C632.584 134.18 634.623 132.099 636.403 129.285L641.915 132.73C639.647 136.262 636.848 138.975 633.517 140.87C630.187 142.765 626.656 143.712 622.923 143.712ZM607.764 124.763L633.733 109.474C632.527 108.067 630.977 106.948 629.082 106.115C627.187 105.254 625.134 104.823 622.923 104.823C620.052 104.823 617.439 105.555 615.085 107.02C612.759 108.455 610.893 110.407 609.486 112.877C608.108 115.346 607.419 118.116 607.419 121.188C607.419 122.05 607.462 122.825 607.548 123.514C607.635 124.174 607.706 124.591 607.764 124.763ZM657.29 143.712H650.701V98.6646H657.29V103.531C657.75 102.9 658.553 102.21 659.702 101.464C660.879 100.717 662.286 100.071 663.922 99.526C665.588 98.9518 667.339 98.6646 669.176 98.6646C672.249 98.6646 675.45 99.7413 678.78 101.895L674.258 106.417C673.167 105.814 672.234 105.397 671.459 105.168C670.684 104.938 669.923 104.823 669.176 104.823C665.903 104.823 663.104 106.402 660.779 109.56C658.453 112.69 657.29 116.566 657.29 121.188V143.712ZM690.193 143.712H683.604V98.6646H690.193V143.712ZM687.135 92.6784C686.073 92.6784 685.14 92.2621 684.336 91.4295C683.561 90.5682 683.173 89.6351 683.173 88.6302C683.173 87.5966 683.561 86.6635 684.336 85.8309C685.14 84.9695 686.073 84.5389 687.135 84.5389C688.226 84.5389 689.159 84.9695 689.934 85.8309C690.738 86.6635 691.14 87.5966 691.14 88.6302C691.14 89.6351 690.738 90.5682 689.934 91.4295C689.159 92.2621 688.226 92.6784 687.135 92.6784ZM718.875 143.712C714.827 143.712 711.123 142.693 707.764 140.654C704.433 138.587 701.763 135.845 699.754 132.429C697.773 129.012 696.782 125.265 696.782 121.188C696.782 117.111 697.773 113.365 699.754 109.948C701.763 106.531 704.433 103.804 707.764 101.765C711.123 99.6982 714.827 98.6646 718.875 98.6646C722.895 98.6646 726.57 99.6982 729.9 101.765C733.259 103.804 735.944 106.531 737.954 109.948C739.963 113.365 740.968 117.111 740.968 121.188C740.968 125.265 739.963 129.012 737.954 132.429C735.944 135.845 733.259 138.587 729.9 140.654C726.57 142.693 722.895 143.712 718.875 143.712ZM718.875 137.554C721.746 137.554 724.345 136.836 726.67 135.4C729.024 133.936 730.891 131.969 732.269 129.5C733.647 127.031 734.336 124.26 734.336 121.188C734.336 118.116 733.647 115.346 732.269 112.877C730.891 110.407 729.024 108.455 726.67 107.02C724.345 105.555 721.746 104.823 718.875 104.823C716.004 104.823 713.391 105.555 711.037 107.02C708.711 108.455 706.845 110.407 705.438 112.877C704.06 115.346 703.371 118.116 703.371 121.188C703.371 124.26 704.06 127.031 705.438 129.5C706.845 131.969 708.711 133.936 711.037 135.4C713.391 136.836 716.004 137.554 718.875 137.554ZM754.276 143.712H747.687V98.6646H754.276V103.531C754.735 102.9 755.539 102.21 756.687 101.464C757.865 100.717 759.271 100.071 760.908 99.526C762.573 98.9518 764.324 98.6646 766.162 98.6646C769.234 98.6646 772.435 99.7413 775.766 101.895L771.244 106.417C770.153 105.814 769.22 105.397 768.445 105.168C767.669 104.938 766.908 104.823 766.162 104.823C762.889 104.823 760.09 106.402 757.764 109.56C755.438 112.69 754.276 116.566 754.276 121.188V143.712ZM797.945 143.626H792.389C789.518 143.626 786.906 142.75 784.551 140.999C782.226 139.248 780.661 137.008 779.857 134.281L779.039 131.352L785.37 129.586L786.231 132.644C786.662 134.166 787.422 135.357 788.513 136.219C789.633 137.051 790.925 137.467 792.389 137.467H797.945C799.754 137.467 801.275 136.85 802.51 135.616C803.745 134.352 804.362 132.773 804.362 130.878C804.362 128.926 803.501 127.347 801.778 126.141C800.084 124.906 797.888 124.289 795.189 124.289C790.71 124.289 786.949 123.069 783.905 120.629C780.891 118.159 779.383 115.116 779.383 111.498C779.383 108.053 780.661 105.067 783.216 102.541C785.8 99.9854 788.858 98.7077 792.389 98.7077H797.945C800.988 98.7077 803.702 99.6839 806.085 101.636C808.496 103.56 810.032 105.986 810.693 108.914L811.296 111.929L804.836 113.221L804.233 110.163C803.859 108.527 803.099 107.249 801.95 106.33C800.83 105.383 799.495 104.909 797.945 104.909H792.389C790.581 104.909 789.059 105.527 787.824 106.761C786.59 107.996 785.973 109.575 785.973 111.498C785.973 113.479 786.805 115.073 788.47 116.279C790.164 117.485 792.404 118.088 795.189 118.088C799.582 118.088 803.3 119.337 806.343 121.834C809.415 124.304 810.951 127.318 810.951 130.878C810.951 134.295 809.673 137.281 807.118 139.836C804.563 142.363 801.505 143.626 797.945 143.626Z" fill="#F4EEE0"/>
<path d="M268.91 68.1399C268.85 66.9999 267.91 66.0999 266.77 66.0999C253.86 66.0999 240.94 66.1199 228.03 66.0999C213.22 66.0799 198.39 66.1099 183.58 66.0999C180.52 66.0999 178.07 68.6099 178.13 71.6599C178.25 77.4199 178.37 83.1799 178.5 88.9399C178.56 91.8699 180.94 94.2299 183.88 94.2699C184.85 94.2799 185.7 94.2899 186.43 94.2899C187.93 94.2899 189.06 94.2699 193.35 94.2899C194.5 94.2899 195.66 94.2899 196.82 94.2899C220.13 94.3899 243.47 94.2299 266.78 94.2899C267.92 94.2899 268.86 93.4099 268.92 92.2799C269.12 88.6199 269.24 84.7799 269.25 80.7799C269.25 80.6399 269.25 80.3999 269.25 80.0999C269.29 72.2899 269.06 70.6899 268.92 68.1499L268.91 68.1399Z" fill="#317A8B"/>
<path d="M306.39 131.69C293.09 123.1 275.16 102.31 277.62 76.85C281.72 22.59 352.27 4.39994 382.72 46.6099C419.66 96.7899 360.4 161.82 306.39 131.7V131.69ZM320.57 107.49C347.87 123.62 378.91 89.4199 360.21 63.7999C329.36 25.6799 279.65 80.4799 320.57 107.49Z" fill="#317A8B"/>
<path d="M466.18 69.2399C466.18 69.2399 466.09 69.1999 466.05 69.1799C455.5 63.7599 437.96 69.6799 432.17 63.9499C427.99 59.7299 429.84 51.8199 435.62 50.4999C435.86 50.4699 436.11 50.4399 436.35 50.4099C455.43 49.3999 461.97 49.8899 478.89 50.0899C479.51 50.3899 482.21 49.3299 481.98 48.0699C482.5 38.5499 482.69 31.5399 482.62 29.5099C482.59 28.5299 482.48 28.1899 482.48 26.8399C482.48 25.1399 482.65 24.5599 482.19 23.8899C481.69 23.1699 480.79 22.8199 480.52 22.8099C480.42 22.8099 480.33 22.8099 480.23 22.7999C479.13 22.7599 472.08 22.4799 467.13 22.4299C463.55 22.3899 458.28 22.4299 451.44 22.8299C451.44 22.8299 426.33 24.1199 421.53 26.5699L421.33 26.6699C408.94 33.5999 402.13 46.3199 402.87 60.3699C403.41 74.3499 412.59 85.7599 424.63 91.8599C424.92 91.9699 425.21 92.0899 425.5 92.1999C439 95.9599 448.56 93.8399 453.7 94.2599C462.79 95.0599 463.96 108.03 455.56 110.51C455.23 110.56 454.9 110.61 454.57 110.66C429.48 111.89 431.61 109.79 399.85 110.42C398.55 110.45 397.48 111.47 397.41 112.77C397.18 126.03 397.03 135.71 397.04 136.63C396.96 137.25 397.78 138.01 398.51 137.75C436.95 138.36 442.12 138.59 452.86 138.55C491.49 138.05 501.95 83.68 466.18 69.22V69.2399Z" fill="#317A8B"/>
<path d="M269.95 25.0499C269.69 33.3499 269.44 41.6599 269.18 49.9599C269.15 50.9899 268.3 51.8099 267.27 51.8099H194.82C194.76 51.8099 194.7 51.8099 194.65 51.8099C193.04 51.9799 191.46 51.8499 190.83 50.9199C189.38 48.7999 193.6 43.7399 194.74 42.3799C196.4 40.3899 199.79 36.7999 207.27 32.8499C217.58 27.3999 227.1 25.7799 231.96 24.9999C233.5 24.7499 234.92 24.5799 237.77 24.2299C243.51 23.5299 249.43 22.8099 256.5 22.6799C261.76 22.5799 265.67 22.8499 268.06 23.0699C268.11 23.0699 268.15 23.0699 268.17 23.0799C269.2 23.1499 269.99 24.0199 269.95 25.0399V25.0499Z" fill="#317A8B"/>
<path d="M269.23 135.38C268.97 127.08 268.72 118.77 268.46 110.47C268.43 109.44 267.58 108.62 266.55 108.62H194.1C194.04 108.62 193.98 108.62 193.93 108.62C192.32 108.45 190.74 108.58 190.11 109.51C188.66 111.63 192.88 116.69 194.02 118.05C195.68 120.04 199.07 123.63 206.55 127.58C216.86 133.03 226.38 134.65 231.24 135.43C232.78 135.68 234.2 135.85 237.05 136.2C242.79 136.9 248.71 137.62 255.78 137.75C261.04 137.85 264.95 137.58 267.34 137.36C267.39 137.36 267.43 137.36 267.45 137.35C268.48 137.28 269.27 136.41 269.23 135.39V135.38Z" fill="#317A8B"/>
<path d="M192.041 181.46H178.614V156.431H189.622C190.895 156.431 192.063 156.744 193.127 157.369C194.202 157.995 195.058 158.828 195.694 159.871C196.33 160.913 196.649 162.048 196.649 163.277C196.649 164.33 196.44 165.295 196.023 166.173C195.617 167.051 195.135 167.72 194.575 168.18C195.354 168.4 196.084 168.822 196.764 169.447C197.444 170.062 197.998 170.819 198.426 171.718C198.864 172.618 199.084 173.578 199.084 174.598C199.084 175.838 198.76 176.978 198.113 178.021C197.477 179.063 196.627 179.896 195.563 180.522C194.498 181.147 193.325 181.46 192.041 181.46ZM192.041 179.107C193.303 179.107 194.372 178.673 195.25 177.807C196.127 176.94 196.566 175.87 196.566 174.598C196.566 173.325 196.127 172.261 195.25 171.406C194.372 170.539 193.303 170.106 192.041 170.106L190.149 170.122L189.622 170.139L181.131 170.122V179.107H192.041ZM189.622 167.785C190.884 167.785 191.948 167.358 192.815 166.502C193.692 165.635 194.131 164.56 194.131 163.277C194.131 162.004 193.692 160.94 192.815 160.085C191.948 159.218 190.884 158.785 189.622 158.785H181.131V167.769L189.622 167.785ZM208.957 181.394C207.608 181.394 206.373 181.081 205.255 180.456C204.136 179.82 203.236 178.98 202.556 177.938C201.887 176.896 201.552 175.75 201.552 174.499V164.182H204.07V174.499C204.07 175.783 204.541 176.863 205.485 177.741C206.428 178.607 207.586 179.041 208.957 179.041C210.328 179.041 211.486 178.607 212.429 177.741C213.372 176.863 213.844 175.783 213.844 174.499V164.182H216.362V174.499C216.362 175.75 216.027 176.896 215.358 177.938C214.689 178.98 213.789 179.82 212.659 180.456C211.54 181.081 210.306 181.394 208.957 181.394ZM222.17 181.46H219.653V164.248H222.17V181.46ZM221.002 161.96C220.596 161.96 220.24 161.801 219.932 161.483C219.636 161.154 219.488 160.798 219.488 160.414C219.488 160.019 219.636 159.662 219.932 159.344C220.24 159.015 220.596 158.85 221.002 158.85C221.419 158.85 221.775 159.015 222.072 159.344C222.379 159.662 222.532 160.019 222.532 160.414C222.532 160.798 222.379 161.154 222.072 161.483C221.775 161.801 221.419 161.96 221.002 161.96ZM228.193 181.46H225.675V156.81H228.193V181.46ZM247.231 181.46H244.714V179.107C244.451 179.458 244.023 179.814 243.43 180.176C242.849 180.527 242.152 180.829 241.341 181.081C240.54 181.334 239.69 181.46 238.79 181.46C237.254 181.46 235.845 181.07 234.561 180.291C233.289 179.502 232.268 178.454 231.5 177.148C230.732 175.843 230.349 174.411 230.349 172.854C230.349 171.296 230.732 169.864 231.5 168.559C232.268 167.253 233.289 166.211 234.561 165.432C235.845 164.643 237.254 164.248 238.79 164.248C239.69 164.248 240.54 164.374 241.341 164.626C242.152 164.878 242.849 165.186 243.43 165.548C244.023 165.899 244.451 166.25 244.714 166.601V156.431H247.231V181.46ZM238.79 179.107C239.887 179.107 240.88 178.832 241.768 178.284C242.668 177.724 243.381 176.973 243.908 176.029C244.445 175.086 244.714 174.027 244.714 172.854C244.714 171.68 244.445 170.621 243.908 169.678C243.381 168.734 242.668 167.988 241.768 167.44C240.88 166.88 239.887 166.601 238.79 166.601C237.693 166.601 236.695 166.88 235.795 167.44C234.907 167.988 234.199 168.734 233.672 169.678C233.146 170.621 232.883 171.68 232.883 172.854C232.883 174.027 233.146 175.086 233.672 176.029C234.199 176.973 234.907 177.724 235.795 178.284C236.695 178.832 237.693 179.107 238.79 179.107ZM253.139 181.46H250.621V164.248H253.139V181.46ZM251.971 161.96C251.565 161.96 251.208 161.801 250.901 161.483C250.605 161.154 250.457 160.798 250.457 160.414C250.457 160.019 250.605 159.662 250.901 159.344C251.208 159.015 251.565 158.85 251.971 158.85C252.387 158.85 252.744 159.015 253.04 159.344C253.347 159.662 253.501 160.019 253.501 160.414C253.501 160.798 253.347 161.154 253.04 161.483C252.744 161.801 252.387 161.96 251.971 161.96ZM271.585 181.46H269.067V172.607C269.067 170.906 268.579 169.48 267.603 168.329C266.626 167.177 265.447 166.601 264.065 166.601C262.683 166.601 261.503 167.177 260.527 168.329C259.562 169.48 259.079 170.906 259.079 172.607V181.443H256.545V163.869H259.079V166.222C259.277 165.959 259.622 165.674 260.116 165.367C260.609 165.059 261.202 164.796 261.893 164.577C262.584 164.357 263.308 164.248 264.065 164.248C265.447 164.248 266.703 164.632 267.833 165.4C268.974 166.156 269.885 167.171 270.565 168.444C271.245 169.705 271.585 171.093 271.585 172.607V181.46ZM283.301 189.259H282.034V186.89H283.301C284.683 186.89 285.857 186.352 286.822 185.277C287.788 184.213 288.27 182.897 288.27 181.328V179.107C288.018 179.458 287.596 179.814 287.003 180.176C286.422 180.527 285.725 180.829 284.914 181.081C284.113 181.334 283.263 181.46 282.363 181.46C280.816 181.46 279.401 181.07 278.118 180.291C276.845 179.502 275.825 178.454 275.057 177.148C274.3 175.843 273.922 174.411 273.922 172.854C273.922 171.296 274.3 169.864 275.057 168.559C275.825 167.253 276.845 166.211 278.118 165.432C279.401 164.643 280.816 164.248 282.363 164.248C283.263 164.248 284.113 164.374 284.914 164.626C285.725 164.878 286.422 165.186 287.003 165.548C287.596 165.899 288.018 166.25 288.27 166.601V164.248H290.804V181.328C290.804 182.754 290.464 184.065 289.784 185.261C289.104 186.467 288.194 187.433 287.053 188.157C285.923 188.892 284.672 189.259 283.301 189.259ZM282.363 179.107C283.46 179.107 284.453 178.832 285.341 178.284C286.241 177.724 286.954 176.973 287.481 176.029C288.007 175.086 288.27 174.027 288.27 172.854C288.27 171.68 288.007 170.621 287.481 169.678C286.954 168.734 286.241 167.988 285.341 167.44C284.453 166.88 283.46 166.601 282.363 166.601C281.266 166.601 280.268 166.88 279.368 167.44C278.48 167.988 277.767 168.734 277.229 169.678C276.702 170.621 276.439 171.68 276.439 172.854C276.439 174.027 276.702 175.086 277.229 176.029C277.767 176.973 278.48 177.724 279.368 178.284C280.268 178.832 281.266 179.107 282.363 179.107ZM318.383 181.46C317.582 181.46 316.825 181.323 316.112 181.048C315.399 180.774 314.78 180.428 314.253 180.012C313.737 179.584 313.353 179.14 313.101 178.679C312.849 179.129 312.459 179.562 311.933 179.979C311.417 180.385 310.803 180.725 310.09 180.999C309.388 181.273 308.636 181.41 307.835 181.41C306.651 181.41 305.559 181.098 304.561 180.472C303.574 179.836 302.784 178.997 302.191 177.955C301.599 176.902 301.303 175.755 301.303 174.516V164.198H303.837V174.516C303.837 175.81 304.226 176.891 305.005 177.757C305.784 178.624 306.728 179.057 307.835 179.057C308.954 179.057 309.903 178.624 310.682 177.757C311.461 176.891 311.851 175.81 311.851 174.516V164.198H314.368V174.565C314.368 175.859 314.758 176.94 315.536 177.807C316.326 178.673 317.275 179.107 318.383 179.107C319.502 179.107 320.451 178.673 321.23 177.807C322.009 176.94 322.398 175.859 322.398 174.565V164.248H324.916V174.565C324.916 175.805 324.62 176.951 324.027 178.004C323.446 179.046 322.656 179.885 321.658 180.522C320.67 181.147 319.579 181.46 318.383 181.46ZM330.741 181.46H328.223V164.248H330.741V181.46ZM329.573 161.96C329.167 161.96 328.81 161.801 328.503 161.483C328.207 161.154 328.059 160.798 328.059 160.414C328.059 160.019 328.207 159.662 328.503 159.344C328.81 159.015 329.167 158.85 329.573 158.85C329.99 158.85 330.346 159.015 330.642 159.344C330.949 159.662 331.103 160.019 331.103 160.414C331.103 160.798 330.949 161.154 330.642 161.483C330.346 161.801 329.99 161.96 329.573 161.96ZM343.115 181.46C341.601 181.46 340.247 181.098 339.051 180.374C337.866 179.65 336.928 178.69 336.237 177.494C335.546 176.287 335.2 174.965 335.2 173.528V170.468H333.818V168.115H335.2V158.11H337.718V168.115H341.914V170.468H337.718V173.528C337.718 174.581 337.943 175.53 338.393 176.375C338.853 177.22 339.49 177.889 340.301 178.383C341.113 178.865 342.051 179.107 343.115 179.107V181.46ZM362.944 181.443H360.426V172.59C360.426 171.471 360.157 170.457 359.62 169.546C359.093 168.636 358.38 167.917 357.48 167.391C356.592 166.864 355.599 166.601 354.502 166.601C353.405 166.601 352.407 166.864 351.507 167.391C350.619 167.917 349.906 168.636 349.368 169.546C348.842 170.457 348.578 171.471 348.578 172.59V181.427H346.061V156.399H348.578V166.518C348.842 166.189 349.264 165.849 349.845 165.498C350.438 165.147 351.134 164.851 351.935 164.61C352.747 164.357 353.603 164.231 354.502 164.231C356.038 164.231 357.442 164.615 358.715 165.383C359.998 166.14 361.024 167.155 361.792 168.427C362.56 169.689 362.944 171.077 362.944 172.59V181.443ZM391.559 181.443H373.442V156.777H391.559V159.114H375.976V167.901H389.7V170.237H375.976V179.107H391.559V181.443ZM409.577 181.46H406.418L401.695 175.075L396.973 181.46H393.83L400.132 172.936L393.715 164.248H396.857L401.695 170.813L406.55 164.248H409.692L403.275 172.936L409.577 181.46ZM417.986 181.46C416.45 181.46 415.04 181.07 413.757 180.291C412.484 179.502 411.464 178.454 410.696 177.148C409.928 175.843 409.544 174.411 409.544 172.854C409.544 171.296 409.928 169.864 410.696 168.559C411.464 167.253 412.484 166.211 413.757 165.432C415.04 164.643 416.45 164.248 417.986 164.248C419.39 164.248 420.723 164.599 421.984 165.301C423.246 166.003 424.31 167.007 425.177 168.312L423.103 169.678C421.754 167.626 420.048 166.601 417.986 166.601C416.889 166.601 415.891 166.88 414.991 167.44C414.102 167.988 413.395 168.734 412.868 169.678C412.342 170.621 412.078 171.68 412.078 172.854C412.078 174.027 412.342 175.086 412.868 176.029C413.395 176.973 414.102 177.724 414.991 178.284C415.891 178.832 416.889 179.107 417.986 179.107C418.995 179.107 419.938 178.849 420.816 178.333C421.694 177.818 422.473 177.022 423.153 175.947L425.242 177.264C424.376 178.613 423.306 179.65 422.034 180.374C420.761 181.098 419.412 181.46 417.986 181.46ZM435.165 181.46C433.618 181.46 432.203 181.07 430.919 180.291C429.647 179.502 428.627 178.454 427.859 177.148C427.102 175.843 426.723 174.411 426.723 172.854C426.723 171.296 427.102 169.864 427.859 168.559C428.627 167.253 429.647 166.211 430.919 165.432C432.203 164.643 433.618 164.248 435.165 164.248C436.558 164.248 437.88 164.588 439.131 165.268C440.381 165.948 441.401 166.886 442.191 168.082L442.833 169.085L430.311 176.441C430.793 177.231 431.457 177.872 432.302 178.366C433.146 178.86 434.101 179.107 435.165 179.107C436.174 179.107 437.112 178.849 437.979 178.333C438.856 177.818 439.635 177.022 440.315 175.947L442.422 177.264C441.555 178.613 440.485 179.65 439.213 180.374C437.94 181.098 436.591 181.46 435.165 181.46ZM429.373 174.219L439.295 168.378C438.834 167.84 438.242 167.413 437.518 167.094C436.794 166.765 436.01 166.601 435.165 166.601C434.068 166.601 433.07 166.88 432.17 167.44C431.281 167.988 430.568 168.734 430.031 169.678C429.504 170.621 429.241 171.68 429.241 172.854C429.241 173.183 429.258 173.479 429.29 173.742C429.323 173.995 429.351 174.154 429.373 174.219ZM447.276 181.46H444.758V156.81H447.276V181.46ZM453.167 181.46H450.649V156.81H453.167V181.46ZM464.093 181.46C462.546 181.46 461.131 181.07 459.848 180.291C458.575 179.502 457.555 178.454 456.787 177.148C456.03 175.843 455.651 174.411 455.651 172.854C455.651 171.296 456.03 169.864 456.787 168.559C457.555 167.253 458.575 166.211 459.848 165.432C461.131 164.643 462.546 164.248 464.093 164.248C465.486 164.248 466.808 164.588 468.059 165.268C469.309 165.948 470.329 166.886 471.119 168.082L471.761 169.085L459.239 176.441C459.721 177.231 460.385 177.872 461.23 178.366C462.074 178.86 463.029 179.107 464.093 179.107C465.102 179.107 466.04 178.849 466.907 178.333C467.784 177.818 468.563 177.022 469.243 175.947L471.35 177.264C470.483 178.613 469.413 179.65 468.141 180.374C466.868 181.098 465.519 181.46 464.093 181.46ZM458.301 174.219L468.223 168.378C467.762 167.84 467.17 167.413 466.446 167.094C465.722 166.765 464.938 166.601 464.093 166.601C462.996 166.601 461.998 166.88 461.098 167.44C460.21 167.988 459.496 168.734 458.959 169.678C458.432 170.621 458.169 171.68 458.169 172.854C458.169 173.183 458.186 173.479 458.218 173.742C458.251 173.995 458.279 174.154 458.301 174.219ZM488.957 181.46H486.439V172.607C486.439 170.906 485.951 169.48 484.974 168.329C483.998 167.177 482.819 166.601 481.437 166.601C480.054 166.601 478.875 167.177 477.899 168.329C476.933 169.48 476.451 170.906 476.451 172.607V181.443H473.917V163.869H476.451V166.222C476.648 165.959 476.994 165.674 477.487 165.367C477.981 165.059 478.573 164.796 479.264 164.577C479.956 164.357 480.68 164.248 481.437 164.248C482.819 164.248 484.075 164.632 485.205 165.4C486.346 166.156 487.256 167.171 487.936 168.444C488.616 169.705 488.957 171.093 488.957 172.607V181.46ZM499.768 181.46C498.232 181.46 496.822 181.07 495.539 180.291C494.266 179.502 493.246 178.454 492.478 177.148C491.71 175.843 491.326 174.411 491.326 172.854C491.326 171.296 491.71 169.864 492.478 168.559C493.246 167.253 494.266 166.211 495.539 165.432C496.822 164.643 498.232 164.248 499.768 164.248C501.172 164.248 502.505 164.599 503.766 165.301C505.028 166.003 506.092 167.007 506.958 168.312L504.885 169.678C503.536 167.626 501.83 166.601 499.768 166.601C498.671 166.601 497.672 166.88 496.773 167.44C495.884 167.988 495.177 168.734 494.65 169.678C494.123 170.621 493.86 171.68 493.86 172.854C493.86 174.027 494.123 175.086 494.65 176.029C495.177 176.973 495.884 177.724 496.773 178.284C497.672 178.832 498.671 179.107 499.768 179.107C500.777 179.107 501.72 178.849 502.598 178.333C503.475 177.818 504.254 177.022 504.934 175.947L507.024 177.264C506.158 178.613 505.088 179.65 503.815 180.374C502.543 181.098 501.194 181.46 499.768 181.46ZM516.947 181.46C515.4 181.46 513.985 181.07 512.701 180.291C511.429 179.502 510.408 178.454 509.641 177.148C508.884 175.843 508.505 174.411 508.505 172.854C508.505 171.296 508.884 169.864 509.641 168.559C510.408 167.253 511.429 166.211 512.701 165.432C513.985 164.643 515.4 164.248 516.947 164.248C518.34 164.248 519.662 164.588 520.912 165.268C522.163 165.948 523.183 166.886 523.973 168.082L524.615 169.085L512.092 176.441C512.575 177.231 513.239 177.872 514.083 178.366C514.928 178.86 515.883 179.107 516.947 179.107C517.956 179.107 518.894 178.849 519.76 178.333C520.638 177.818 521.417 177.022 522.097 175.947L524.203 177.264C523.337 178.613 522.267 179.65 520.995 180.374C519.722 181.098 518.373 181.46 516.947 181.46ZM511.154 174.219L521.077 168.378C520.616 167.84 520.024 167.413 519.3 167.094C518.576 166.765 517.791 166.601 516.947 166.601C515.85 166.601 514.851 166.88 513.952 167.44C513.063 167.988 512.35 168.734 511.813 169.678C511.286 170.621 511.023 171.68 511.023 172.854C511.023 173.183 511.039 173.479 511.072 173.742C511.105 173.995 511.133 174.154 511.154 174.219Z" fill="#F4EEE0"/>
<mask id="mask0_0_1" style="mask-type:luminance" maskUnits="userSpaceOnUse" x="0" y="0" width="132" height="121">
<path d="M131.81 0H0V120.82H131.81V0Z" fill="white"/>
</mask>
<g mask="url(#mask0_0_1)">
<mask id="mask1_0_1" style="mask-type:luminance" maskUnits="userSpaceOnUse" x="-15" y="0" width="147" height="135">
<path d="M89.341 0.0364733L-14.0469 79.6846L28.3434 134.71L131.731 55.0615L89.341 0.0364733Z" fill="white"/>
</mask>
<g mask="url(#mask1_0_1)">
<mask id="mask2_0_1" style="mask-type:luminance" maskUnits="userSpaceOnUse" x="0" y="0" width="132" height="121">
<path d="M1.71023 96.7901C2.92023 100.35 4.76023 104.04 7.19023 107.19C9.62023 110.34 12.4902 112.95 15.6002 115C15.6802 115.03 15.7202 115.09 15.8002 115.13C27.7102 122.66 43.7902 122.57 56.5402 112.99L131.74 55.05L89.3502 0.0300293L14.2102 57.92C1.58022 67.89 -2.69977 83.3001 1.72023 96.7901H1.71023Z" fill="white"/>
</mask>
<g mask="url(#mask2_0_1)">
<path d="M89.34 0.0300293L131.73 55.05L28.35 134.7L-14.04 79.68L89.34 0.0300293Z" fill="#F4EEE0"/>
</g>
</g>
</g>
<mask id="mask3_0_1" style="mask-type:luminance" maskUnits="userSpaceOnUse" x="18" y="66" width="134" height="122">
<path d="M151.16 66.4199H18.8301V187.24H151.16V66.4199Z" fill="white"/>
</mask>
<g mask="url(#mask3_0_1)">
<mask id="mask4_0_1" style="mask-type:luminance" maskUnits="userSpaceOnUse" x="18" y="52" width="147" height="136">
<path d="M122.301 52.4179L18.9131 132.066L61.3034 187.091L164.691 107.443L122.301 52.4179Z" fill="white"/>
</mask>
<g mask="url(#mask4_0_1)">
<mask id="mask5_0_1" style="mask-type:luminance" maskUnits="userSpaceOnUse" x="18" y="66" width="133" height="122">
<path d="M148.96 90.3099C147.75 86.7499 145.91 83.0599 143.48 79.9099C141.05 76.7599 138.18 74.1499 135.07 72.0999C134.99 72.0599 134.95 71.9999 134.87 71.9699C122.96 64.4499 106.88 64.5299 94.1297 74.1199L18.9297 132.05L61.3197 187.07L136.46 129.18C149.09 119.21 153.37 103.8 148.95 90.3099H148.96Z" fill="white"/>
</mask>
<g mask="url(#mask5_0_1)">
<path d="M61.3295 187.07L18.9395 132.05L122.319 52.3999L164.709 107.42L61.3295 187.07Z" fill="#317A8B"/>
</g>
</g>
</g>
</svg>
