<svg width="182" height="20" viewBox="0 0 182 20" fill="none" xmlns="http://www.w3.org/2000/svg">
<path d="M23.967 0.315125L19.603 13.9261L15.088 0.317125H12.363L7.865 13.9261L3.482 0.315125H0L6.404 18.6721H9.181L13.674 5.61212L18.191 18.6721H20.995L27.348 0.315125H23.967Z" fill="white"/>
<path d="M30.1787 0.315125L30.1917 18.6721H33.4147L33.4007 0.315125H30.1787Z" fill="white"/>
<path d="M40.8765 15.7341L40.8665 0.315125H37.6445L37.6575 18.6721H50.5185L50.5175 15.7341H40.8765Z" fill="white"/>
<path d="M60.0441 0.315002H53.2061L53.2211 18.672H60.0581C65.8171 18.672 69.7961 14.658 69.7941 9.493V9.441C69.7911 4.275 65.8051 0.315002 60.0441 0.315002ZM66.4151 9.545C66.4171 13.138 63.9041 15.734 60.0531 15.734H56.4391L56.4311 3.254H60.0441C63.8971 3.254 66.4111 5.902 66.4141 9.493V9.545H66.4151Z" fill="white"/>
<mask id="mask0_196_33" style="mask-type:luminance" maskUnits="userSpaceOnUse" x="71" y="0" width="18" height="20">
<path d="M71.71 0H88.165V19.039H71.71V0Z" fill="white"/>
</mask>
<g mask="url(#mask0_196_33)">
<path d="M87.7399 10.202L85.3039 8.91702C84.7039 10.202 84.0479 11.408 83.3419 12.455L80.1949 9.25802C82.6329 8.34002 84.2289 6.89702 84.2239 4.48402V4.43402C84.2239 1.96702 82.2589 -0.000976562 79.3519 -0.000976562C76.0749 -0.000976562 74.0859 2.14802 74.0899 4.61502V4.66802C74.0899 6.00402 74.5639 7.15802 75.6089 8.49702C73.0989 9.57102 71.7089 11.278 71.7109 13.635L71.7139 13.688C71.7139 16.861 74.2829 18.936 77.7139 18.936C79.9159 18.936 81.7499 18.015 83.3189 16.548L85.7569 19.038L88.1659 17.306L85.2549 14.37C86.1939 13.111 87.0069 11.672 87.7399 10.202ZM77.1009 4.74802C77.0979 3.46202 77.9899 2.54302 79.2989 2.54302C80.5059 2.54302 81.3689 3.38302 81.3689 4.61602V4.66902C81.3719 5.98102 80.3779 6.84402 78.4919 7.52702C77.4689 6.39902 77.1019 5.71802 77.1009 4.79902V4.74802ZM78.0259 16.262C76.2449 16.262 74.9609 15.134 74.9569 13.583V13.533C74.9569 12.349 75.6889 11.225 77.3929 10.492L81.4809 14.658C80.4359 15.658 79.2849 16.262 78.0259 16.262Z" fill="white"/>
</g>
<path d="M115.193 0.315002L109.621 8.995L104.037 0.315002H100.61V18.672H103.781V5.559L109.52 14.16H109.625L115.408 5.506L115.417 18.672H118.64L118.628 0.315002H115.193Z" fill="white"/>
<path d="M131.49 0C125.858 0 121.881 4.328 121.886 9.493V9.546C121.887 14.712 125.821 18.989 131.45 18.989C137.079 18.989 141.061 14.659 141.06 9.493V9.441C141.054 4.274 137.123 0 131.49 0ZM137.681 9.545C137.681 13.111 135.142 15.994 131.503 15.994C127.859 15.994 125.264 13.058 125.264 9.493V9.441C125.261 5.874 127.796 2.965 131.44 2.965C135.082 2.965 137.675 5.925 137.681 9.492V9.545Z" fill="white"/>
<mask id="mask1_196_33" style="mask-type:luminance" maskUnits="userSpaceOnUse" x="165" y="0" width="17" height="19">
<path d="M165.917 0.314636H181.9V18.6716H165.917V0.314636Z" fill="white"/>
</mask>
<g mask="url(#mask1_196_33)">
<path d="M178.727 0.314636V13.0096L168.9 0.314636H165.917L165.93 18.6716H169.1L169.091 5.61264L179.208 18.6716H181.9V0.314636H178.727Z" fill="white"/>
</g>
<path d="M92.554 17.193H97.349V15.056H92.554V13.572H90.958V18.672H92.554V17.193Z" fill="white"/>
<path d="M90.9639 8.52197H93.3099V10.375H90.9639V12.515H97.3569V10.375H94.9819V8.52197H97.3569V6.38397H90.9639V8.52197Z" fill="white"/>
<path d="M97.4135 0.315002H95.8205V3.224H95.0405V0.315002H93.3655V3.224H92.6175V0.315002H91.0205V5.325H97.4135V0.315002Z" fill="white"/>
<path d="M161.722 16.654C155.706 16.451 153.527 10.997 153.298 10.377V6.31797L161.722 1.50197V16.654ZM161.722 18.064H144.181V17.326C147.693 17.212 150.009 15.396 151.424 13.672L152.952 14.776L154.479 13.672C155.894 15.397 158.209 17.212 161.721 17.326L161.722 18.064ZM144.181 1.50197L152.606 6.31797V10.376C152.394 10.934 150.148 16.446 144.181 16.654V1.50197ZM154.063 13.133L152.953 13.936L151.842 13.133C152.356 12.428 152.721 11.772 152.953 11.295C153.185 11.771 153.548 12.428 154.063 13.133ZM148.678 3.28997C149.937 2.96197 151.424 2.78497 152.952 2.78497C154.479 2.78497 155.967 2.96297 157.226 3.28997L152.952 5.73397L148.678 3.28997ZM161.23 1.00197L158.04 2.82497C156.598 2.36497 154.802 2.11097 152.953 2.11097C151.103 2.11097 149.307 2.36497 147.865 2.82497L144.676 1.00197H161.23ZM162.408 0.327975H143.497L143.49 0.323975V0.327975V18.738H162.416V0.327975V0.323975L162.408 0.327975ZM157.183 6.37297L157.182 12.244C155.669 12.076 154.489 10.825 154.489 9.30897C154.489 7.79297 155.669 6.54097 157.183 6.37297ZM157.875 6.37297C159.388 6.53997 160.567 7.79197 160.567 9.30897C160.567 10.825 159.387 12.077 157.875 12.244V6.37297ZM157.529 12.939C159.588 12.939 161.261 11.31 161.261 9.30897C161.261 7.30697 159.587 5.67897 157.529 5.67897C155.471 5.67897 153.797 7.30697 153.797 9.30897C153.796 11.31 155.47 12.939 157.529 12.939Z" fill="white"/>
<path d="M148.376 12.266C146.817 12.266 145.53 11.118 145.356 9.64598H151.392C151.22 11.117 149.934 12.266 148.376 12.266ZM148.376 6.35198C149.934 6.35198 151.22 7.49898 151.393 8.97198H145.357C145.531 7.49898 146.818 6.35198 148.376 6.35198ZM152.109 9.30898C152.109 7.30698 150.433 5.67798 148.377 5.67798C146.318 5.67798 144.643 7.30598 144.643 9.30898C144.643 11.31 146.319 12.939 148.377 12.939C150.433 12.939 152.109 11.31 152.109 9.30898Z" fill="white"/>
</svg>
